# Blender v2.78 (sub 0) OBJ File: ''
# www.blender.org
mtllib crane.mtl
o CraneIFS_001
v 0.554000 0.273400 0.053400
v 0.443100 0.273200 0.004800
v -0.015800 -0.224800 0.003100
v 0.201000 -0.343200 0.067700
v 0.554300 0.273400 -0.043000
v 0.201500 -0.343200 -0.059800
v 0.682400 0.138200 0.005700
v -0.214400 -0.351200 0.075500
v -0.800700 0.245400 0.000100
v 0.200100 -0.191600 0.125100
v -0.014700 -0.211100 0.126600
v 0.225400 -0.105000 0.166200
v -0.014700 -0.211100 0.126400
v -0.018000 -0.107200 0.163000
v -0.016300 -0.013600 0.003100
v -0.240200 -0.198100 0.129500
v -0.258800 -0.108300 0.164300
v -0.015600 0.321000 0.893600
v -0.213900 -0.351200 -0.070800
v -0.013700 -0.211100 -0.120400
v 0.201100 -0.191600 -0.117300
v 0.226600 -0.105000 -0.158200
v -0.016800 -0.107100 -0.156900
v -0.013700 -0.211100 -0.120300
v -0.239200 -0.198100 -0.125000
v -0.257500 -0.108300 -0.160000
v -0.008900 0.321000 -0.887400
vn -0.3777 0.3451 0.8592
vn -0.2102 0.1428 0.9672
vn -0.2028 0.1424 -0.9688
vn -0.3709 0.3447 -0.8623
vn 0.3277 0.5756 -0.7492
vn 0.1652 0.2818 0.9451
vn 0.0386 -0.3536 0.9346
vn 0.0092 0.3323 -0.9431
vn -0.0429 0.5288 0.8476
vn -0.0456 0.4386 -0.8975
vn -0.4575 0.2262 -0.8600
vn 0.4918 0.0012 -0.8707
vn -0.0071 -0.3337 0.9427
vn 0.0083 0.3630 -0.9317
vn -0.0066 0.3321 -0.9432
vn 0.0418 0.5296 0.8472
vn -0.0067 0.8627 -0.5056
vn -0.0039 0.8627 -0.5056
vn -0.0012 0.8627 -0.5056
vn -0.4909 -0.0012 -0.8712
vn 0.4277 0.3223 -0.8445
vn 0.3222 0.5755 0.7516
vn 0.1724 0.2817 -0.9439
vn 0.0456 -0.3542 -0.9341
vn 0.0020 0.3324 0.9431
vn -0.0362 0.5292 -0.8477
vn -0.0524 0.4390 0.8969
vn -0.4640 0.2265 0.8564
vn 0.4852 0.0011 0.8744
vn 0.0003 -0.3340 -0.9426
vn 0.0012 0.3631 0.9318
vn -0.0138 0.3316 0.9433
vn 0.0482 0.5297 -0.8468
vn -0.0108 0.8628 0.5055
vn -0.0106 0.8627 0.5055
vn -0.0051 0.8628 0.5056
vn -0.4975 -0.0012 0.8674
vn 0.4212 0.3226 0.8477
usemtl VMtl001
s 1
f 1//1 2//1 3//1
f 1//2 3//2 4//2
f 5//3 6//3 3//3
f 5//4 3//4 2//4
f 2//5 1//5 7//5
f 8//6 3//6 9//6
f 4//7 10//7 11//7
f 12//8 13//8 14//8
f 13//9 10//9 15//9
f 12//10 10//10 13//10
f 16//11 3//11 8//11
f 15//12 10//12 3//12
f 8//13 11//13 16//13
f 13//14 16//14 17//14
f 14//15 13//15 17//15
f 15//16 16//16 13//16
f 17//17 18//18 14//18
f 14//18 18//18 12//19
f 16//20 15//20 3//20
f 10//21 4//21 3//21
f 2//22 7//22 5//22
f 19//23 9//23 3//23
f 6//24 20//24 21//24
f 22//25 23//25 24//25
f 24//26 15//26 21//26
f 22//27 24//27 21//27
f 25//28 19//28 3//28
f 15//29 3//29 21//29
f 19//30 25//30 20//30
f 24//31 26//31 25//31
f 23//32 26//32 24//32
f 15//33 24//33 25//33
f 26//34 23//35 27//35
f 23//35 22//36 27//35
f 25//37 3//37 15//37
f 21//38 3//38 6//38
