# Blender v2.78 (sub 0) OBJ File: ''
# www.blender.org
mtllib cube.mtl
o CraneIFS_001
v 0.530330 -0.530330 1.060660
v -0.219670 -1.280330 -0.000000
v -0.219670 -1.280330 -0.000000
v 0.530330 -0.530330 1.060660
v 0.530330 -0.530330 -1.060660
v -0.530330 0.530330 -1.060660
v 1.280330 0.219670 0.000000
v 0.530330 -0.530330 1.060660
v -1.280330 -0.219670 -0.000000
v -0.530330 0.530330 1.060660
v -0.530330 0.530330 1.060660
v 0.530330 -0.530330 1.060660
v -0.530330 0.530330 1.060660
v 1.280330 0.219670 0.000000
v 0.219670 1.280330 0.000000
v -1.268135 -0.231865 -0.000000
v 0.219670 1.280330 0.000000
v -0.530330 0.530330 1.060660
v -0.530330 0.530330 -1.060660
v -1.268135 -0.231865 -0.000000
v 1.280330 0.219670 0.000000
v 1.280330 0.219670 0.000000
v 0.530330 -0.530330 -1.060660
v -0.530330 0.530330 -1.060660
v -1.268135 -0.231865 -0.000000
v -1.280330 -0.219670 -0.000000
v -0.530330 0.530330 -1.060660
vn -0.0004 -0.3643 0.9313
vn -0.0002 -0.3641 0.9314
vn -0.7071 0.7071 0.0000
vn 0.5000 0.5000 0.7071
vn -0.0003 -0.3641 -0.9314
vn 0.0003 -0.3638 -0.9315
vn 0.0002 -0.3636 -0.9316
vn -0.7070 0.7072 0.0005
vn -0.7069 0.7073 0.0004
vn 0.5000 0.5000 -0.7071
vn -0.8708 0.0000 0.4916
vn -0.5000 -0.5000 -0.7071
vn 1.0000 0.0000 0.0000
vn -0.8943 0.0000 -0.4474
vn -0.8946 0.0003 -0.4470
vn -0.8946 0.0002 -0.4469
vn -0.5000 -0.5000 0.7071
vn 0.8536 -0.1464 0.5000
vn 0.7128 -0.7013 0.0081
vn -0.7128 0.7013 -0.0085
vn 0.0000 0.0000 -1.0000
vn -0.7068 0.7074 0.0002
vn -0.7068 0.7074 0.0003
vn -0.1505 0.8495 0.5057
vn 0.5002 0.4996 -0.7073
vn 0.5002 0.4996 -0.7072
vn 0.4472 0.0000 -0.8944
vn 0.0000 -0.0000 1.0000
vn -0.8946 -0.0002 -0.4469
vn -0.8943 0.0004 -0.4474
vn -0.8945 0.0005 -0.4471
vn -0.7128 0.7013 0.0081
vn -0.2256 -0.2229 0.9484
vn 0.2215 0.2240 0.9491
vn 0.4082 -0.4082 -0.8165
usemtl VMtl001
s 1
f 1//1 2//2 3//2
f 1//3 3//3 4//3
f 5//4 6//4 3//4
f 5//5 3//6 2//7
f 2//8 1//9 7//9
f 8//10 3//10 9//10
f 4//11 10//11 11//11
f 12//12 13//12 14//12
f 13//13 10//13 15//13
f 12//14 10//15 13//16
f 16//17 3//17 8//17
f 15//18 10//18 3//18
f 8//17 11//17 16//17
f 13//19 16//19 17//19
f 14//12 13//12 17//12
f 15//20 16//20 13//20
f 17//4 18//4 14//4
f 14//4 18//4 12//4
f 16//21 15//21 3//21
f 10//10 4//10 3//10
f 2//22 7//23 5//9
f 19//4 9//4 3//4
f 6//24 20//24 21//24
f 22//25 23//26 24//26
f 24//10 15//10 21//10
f 22//27 24//27 21//27
f 25//12 19//12 3//12
f 15//28 3//28 21//28
f 19//29 25//30 20//31
f 24//4 26//4 25//4
f 23//12 26//12 24//12
f 15//32 24//32 25//32
f 26//4 23//33 27//34
f 23//33 22//17 27//34
f 25//28 3//28 15//28
f 21//35 3//35 6//35
