<?xml version="1.0" encoding="utf-8"?>
<!-- Generator: Adobe Illustrator 19.0.0, SVG Export Plug-In . SVG Version: 6.00 Build 0)  -->
<svg version="1.1" id="Layer_1" xmlns="http://www.w3.org/2000/svg" xmlns:xlink="http://www.w3.org/1999/xlink" x="0px" y="0px"
	 viewBox="0 0 1000 1000" style="enable-background:new 0 0 1000 1000;" xml:space="preserve">
<style type="text/css">
	.st0{fill:#FFFFFF;}
</style>
<g id="XMLID_2_">
	<path id="XMLID_1_" d="M656.8,479.4c1.8,62.2,16.8,150.5,44.8,263.3c29.9-120.7,45-213.2,45-275.8V324.2h177.3V467
		c0,106.7-43.9,276.6-134.3,519.5l-5.1,13.6H623.3l-5.1-13.6c-90.9-244.2-135.2-406-138.6-507h-76.3v395.3
		c0,37.3,4.7,70.2,13.9,97.8l9.2,27.5H250.2l-3.6-16.4c-7.4-33.3-11.1-70-11.1-108.9V479.4H63.6V324.2h171.8V1h167.8v323.2h253.8
		L656.8,479.4z"/>
	<path id="XMLID_5_" class="st0" d="M636.3,345H382.4V21.9H256.3V345H84.5v113.5h171.8v416.2c0,37.9,3.6,72.6,10.6,104.4h130.4
		c-10-29.8-14.9-64.6-14.9-104.4V458.5h117.8v8.4c0,103.2,48.8,273.9,137.5,512.2H770c88.7-238.3,133-409,133-512.2V345H767.4V467
		c0,77.5-21.9,197.1-65.8,358.7c-43.9-161.6-65.8-281.1-65.8-358.7L636.3,345z"/>
</g>
</svg>
